<svg width="60" height="60" viewBox="0 0 60 60" fill="none" xmlns="http://www.w3.org/2000/svg">
<circle cx="30" cy="30" r="30" fill="#DC1717"/>
<path d="M21.0333 27.9833C23.4333 32.7 27.3 36.55 32.0167 38.9667L35.6833 35.3C36.1333 34.85 36.8 34.7 37.3833 34.9C39.25 35.5167 41.2667 35.85 43.3333 35.85C44.25 35.85 45 36.6 45 37.5167V43.3333C45 44.25 44.25 45 43.3333 45C27.6833 45 15 32.3167 15 16.6667C15 15.75 15.75 15 16.6667 15H22.5C23.4167 15 24.1667 15.75 24.1667 16.6667C24.1667 18.75 24.5 20.75 25.1167 22.6167C25.3 23.2 25.1667 23.85 24.7 24.3167L21.0333 27.9833Z" fill="white"/>
</svg>
